<?xml version="1.0" standalone="no"?>
<!DOCTYPE svg PUBLIC "-//W3C//DTD SVG 20010904//EN"
 "http://www.w3.org/TR/2001/REC-SVG-20010904/DTD/svg10.dtd">
<svg version="1.0" xmlns="http://www.w3.org/2000/svg"
 width="193.000000pt" height="261.000000pt" viewBox="0 0 193.000000 261.000000"
 preserveAspectRatio="xMidYMid meet">
<metadata>
Created by potrace 1.16, written by Peter Selinger 2001-2019
</metadata>
<g transform="translate(0.000000,261.000000) scale(0.100000,-0.100000)"
fill="#000000" stroke="none">
<path d="M470 2525 c-256 -46 -466 -84 -467 -85 -2 0 -3 -12 -3 -26 0 -23 3
-25 27 -20 16 3 232 42 482 86 l454 80 456 -80 c251 -44 466 -83 479 -85 21
-5 23 -2 20 22 l-3 27 -465 82 c-256 46 -476 83 -490 83 -14 -1 -234 -38 -490
-84z"/>
<path d="M470 2425 c-256 -46 -466 -84 -467 -84 -8 -2 -1 -776 8 -862 22 -226
86 -439 195 -657 169 -341 397 -602 678 -777 l76 -47 64 36 c162 90 392 307
523 492 192 272 304 538 360 859 14 84 17 169 17 528 1 420 1 428 -19 432 -11
3 -164 30 -340 61 -176 30 -380 66 -454 80 -74 13 -144 24 -155 23 -12 -1
-230 -39 -486 -84z m730 -105 c225 -21 465 -75 615 -139 l70 -29 3 -284 c2
-156 -2 -327 -8 -381 -52 -490 -306 -969 -680 -1281 -96 -81 -209 -156 -234
-156 -49 0 -240 145 -377 287 -262 270 -446 621 -521 994 -21 106 -23 139 -23
468 l0 354 70 29 c283 117 712 171 1085 138z"/>
<path d="M946 2234 c-5 -14 -9 -14 -22 -3 -13 11 -17 10 -25 -4 -6 -9 -18 -17
-27 -17 -21 -1 -54 -25 -45 -33 3 -4 16 -7 28 -7 12 0 24 -3 28 -6 8 -8 -98
-64 -123 -64 -11 0 -27 -11 -36 -24 -20 -31 -15 -71 8 -70 11 1 14 -4 11 -14
-5 -12 1 -14 40 -8 26 4 64 2 86 -4 51 -13 54 -37 12 -101 -35 -54 -137 -159
-174 -178 -26 -14 -30 -13 -70 17 -23 17 -57 40 -76 49 -33 18 -33 18 -57 -10
-13 -15 -26 -40 -30 -55 -3 -15 -19 -65 -35 -111 -48 -136 -36 -240 19 -164
l19 26 7 -52 c7 -52 52 -147 82 -172 19 -15 32 -3 40 38 5 26 2 36 -19 55 -37
35 -84 188 -57 188 6 0 43 -20 81 -45 38 -25 78 -45 89 -45 12 0 25 -13 35
-34 15 -30 137 -145 166 -155 6 -1 2 -9 -7 -15 -15 -11 -15 -19 -4 -67 7 -30
28 -83 46 -119 19 -35 34 -68 34 -72 0 -13 -64 -9 -108 6 -48 17 -174 31 -197
22 -12 -4 -14 -10 -5 -26 16 -30 42 -40 124 -46 75 -5 142 -20 204 -45 31 -13
35 -12 48 5 7 11 15 18 17 15 11 -15 37 -59 37 -63 0 -10 -74 -92 -91 -101
-30 -17 -99 -105 -99 -126 0 -11 7 -22 16 -26 23 -9 83 23 93 50 5 12 16 29
25 36 9 7 16 18 16 23 0 13 97 108 109 108 15 0 18 33 6 60 -32 65 -31 66 49
143 53 51 78 82 82 105 11 55 28 51 20 -5 -8 -61 4 -77 20 -26 8 27 12 31 13
16 1 -12 -9 -42 -20 -67 -14 -28 -19 -51 -14 -62 7 -18 7 -18 15 1 4 12 20 38
34 59 14 22 26 53 27 70 l1 31 9 -32 c15 -53 26 -38 24 33 -1 63 0 66 28 80
17 10 36 33 48 60 17 38 19 57 13 141 -6 90 -5 101 16 136 29 49 17 61 -20 20
-16 -17 -31 -29 -33 -26 -8 8 10 61 32 92 40 55 23 65 -24 14 -39 -42 -44 -45
-45 -25 0 27 24 78 53 110 29 31 5 28 -34 -5 -59 -50 -73 -125 -44 -233 19
-71 19 -153 0 -190 -17 -34 -65 -70 -92 -70 -13 0 -23 12 -32 36 -15 41 -93
124 -161 170 -31 21 -55 49 -78 91 -51 97 -40 111 46 62 43 -25 60 -24 37 1
-17 18 -17 20 -2 14 22 -8 22 4 0 29 -17 18 -17 18 10 6 29 -13 77 0 77 21 0
6 -9 5 -25 -2 -21 -10 -29 -8 -48 10 -13 12 -30 22 -38 22 -12 0 -12 2 0 9 8
5 27 5 43 0 24 -7 29 -5 24 6 -3 10 1 15 12 15 13 1 10 7 -13 25 -16 13 -26
27 -22 31 4 4 15 0 25 -9 10 -10 22 -17 25 -17 17 0 4 23 -34 60 -41 39 -43
54 -5 25 11 -8 31 -15 45 -15 l26 0 -30 25 c-28 22 -28 23 -6 18 23 -6 22 -4
-13 51 -38 60 -38 61 11 47 46 -13 53 6 9 24 -20 9 -36 18 -36 21 0 7 47 0 74
-11 14 -6 17 -5 11 4 -4 7 -28 22 -54 34 -25 11 -40 22 -33 25 7 2 24 -3 37
-12 13 -9 29 -16 35 -16 20 0 -16 39 -65 72 -45 30 -47 32 -26 41 32 15 25 27
-14 27 -19 0 -49 9 -67 20 -18 11 -40 20 -47 20 -8 0 -27 12 -42 26 -23 22
-27 23 -33 8z"/>
<path d="M631 651 c-41 -41 -21 -72 74 -117 77 -37 92 -53 74 -85 -22 -41 -92
-47 -131 -12 -21 19 -23 43 -4 43 20 0 29 30 11 36 -28 11 -45 -4 -45 -40 0
-26 7 -40 32 -61 64 -54 168 -11 168 69 0 39 -21 61 -93 96 -59 29 -68 53 -21
58 22 2 40 -5 63 -23 l31 -27 0 24 c0 31 -11 44 -35 45 -11 0 -39 4 -61 8 -35
6 -45 4 -63 -14z"/>
<path d="M1430 659 c-19 -5 -83 -6 -141 -3 -100 6 -108 5 -128 -15 -38 -38
-18 -81 30 -66 25 8 24 25 -1 25 -11 0 -20 4 -20 10 0 24 79 40 108 22 17 -11
-26 -92 -49 -92 -9 0 -20 -7 -23 -16 -4 -12 -1 -14 14 -9 16 5 19 3 13 -12
-12 -35 -54 -83 -79 -89 -31 -8 -74 19 -74 46 0 11 7 20 15 20 21 0 31 30 14
40 -7 5 -21 4 -31 -1 -28 -15 -24 -74 7 -104 49 -50 136 -21 174 58 15 30 30
47 46 51 14 4 25 11 25 17 0 6 -9 8 -20 4 -27 -8 -26 14 0 48 13 16 35 29 58
32 53 9 101 25 107 36 7 10 3 10 -45 -2z"/>
</g>
</svg>
